<svg id="visual" viewBox="0 0 900 600" width="900" height="600" xmlns="http://www.w3.org/2000/svg" xmlns:xlink="http://www.w3.org/1999/xlink" version="1.1"><rect x="0" y="0" width="900" height="600" fill="#ffffff"></rect><path d="M0 497L21.5 477C43 457 86 417 128.8 406.8C171.7 396.7 214.3 416.3 257.2 418.7C300 421 343 406 385.8 411.7C428.7 417.3 471.3 443.7 514.2 461.3C557 479 600 488 642.8 495.8C685.7 503.7 728.3 510.3 771.2 508.3C814 506.3 857 495.7 878.5 490.3L900 485L900 601L878.5 601C857 601 814 601 771.2 601C728.3 601 685.7 601 642.8 601C600 601 557 601 514.2 601C471.3 601 428.7 601 385.8 601C343 601 300 601 257.2 601C214.3 601 171.7 601 128.8 601C86 601 43 601 21.5 601L0 601Z" fill="#0066FF" stroke-linecap="round" stroke-linejoin="miter"></path></svg>